<svg width="33" height="33" viewBox="0 0 33 33" fill="none" xmlns="http://www.w3.org/2000/svg">
<circle cx="16.2188" cy="16.2842" r="16" fill="#1D1D1E"/>
<g clip-path="url(#clip0_76_26906)">
<path d="M14.4252 14.9575C14.6944 14.9594 14.8847 14.7691 14.8856 14.4957C14.887 14.2246 14.693 14.0273 14.4275 14.0292C14.1705 14.031 13.9797 14.2223 13.9736 14.4845C13.9675 14.7537 14.1602 14.9552 14.4252 14.9575Z" fill="white"/>
<path d="M18.0039 17.6138C18.274 17.6124 18.47 17.806 18.469 18.0728C18.4686 18.3411 18.275 18.5268 17.9992 18.524C17.7319 18.5216 17.5453 18.3392 17.5421 18.078C17.5388 17.813 17.7357 17.6152 18.0039 17.6138Z" fill="white"/>
<path fill-rule="evenodd" clip-rule="evenodd" d="M23.4743 17.0116C23.6143 17.3167 23.8251 17.5597 24.1223 17.7197C24.7367 18.0505 25.0255 18.5669 25.0129 19.2602C25.0097 19.4375 25.0105 19.6152 25.0114 19.7929C25.0131 20.1572 25.0149 20.5214 24.9816 20.8823C24.9121 21.6343 24.2562 22.2114 23.4981 22.2193C22.7013 22.2279 21.9048 22.2266 21.1082 22.2254C20.8222 22.2249 20.5362 22.2245 20.2502 22.2245H16.1989C15.3331 22.2243 14.4673 22.2244 13.6014 22.2245C12.0868 22.2246 10.5721 22.2247 9.05738 22.2235C8.25869 22.2231 7.64428 21.7542 7.46794 21.019C7.44788 20.9345 7.42968 20.8468 7.42922 20.7605C7.42815 20.6144 7.42606 20.4681 7.42398 20.3219C7.41784 19.8917 7.4117 19.4614 7.43155 19.0321C7.45767 18.4615 7.75391 18.0388 8.25029 17.7533C8.80965 17.4319 9.11383 16.9439 9.12176 16.2992C9.12922 15.6764 8.86237 15.1716 8.3226 14.8595C7.6858 14.4909 7.39469 13.9614 7.41942 13.2346C7.42622 13.0361 7.42533 12.8371 7.42444 12.6382C7.42302 12.3185 7.42159 11.9991 7.45208 11.6825C7.52485 10.9295 8.18078 10.3627 8.93655 10.344C9.12627 10.3395 9.31599 10.3402 9.5057 10.3408C9.57211 10.341 9.63851 10.3412 9.70491 10.3412C11.1254 10.3411 12.5459 10.3412 13.9664 10.3412C17.0917 10.3414 20.217 10.3416 23.3423 10.3394C24.0379 10.3389 24.5571 10.6225 24.8608 11.2519C24.942 11.4203 24.9938 11.6186 24.9998 11.8047C25.018 12.3804 25.0283 12.9584 25.0017 13.5332C24.9751 14.1033 24.6803 14.5278 24.1825 14.8114C23.3978 15.2584 23.0983 16.1919 23.4743 17.0116ZM14.4266 13.1362C15.2019 13.1344 15.7776 13.7152 15.7758 14.4975C15.7744 15.2673 15.1982 15.8509 14.435 15.8556C13.6755 15.8603 13.09 15.2743 13.0867 14.5059C13.083 13.7189 13.6517 13.1381 14.4266 13.1362ZM19.2866 13.7308C19.2609 13.7689 19.2368 13.8088 19.2128 13.8487C19.161 13.9347 19.1091 14.0207 19.0403 14.0895C18.2776 14.8554 17.5114 15.6178 16.7451 16.3802C16.5094 16.6147 16.2734 16.8495 16.0378 17.0842C15.366 17.7531 14.6937 18.4221 14.021 19.0902L14.012 19.0991C13.9613 19.1495 13.9097 19.2007 13.8502 19.2385C13.672 19.3528 13.4374 19.3188 13.2923 19.1648C13.1472 19.0114 13.1304 18.7776 13.2559 18.6041C13.2932 18.5528 13.3394 18.507 13.3846 18.4623L14.891 16.9624C16.0625 15.7962 17.2343 14.6295 18.4049 13.4625C18.5472 13.3207 18.6965 13.2111 18.9125 13.2694C19.1177 13.3245 19.2484 13.4933 19.2857 13.7308H19.2866ZM17.9894 19.4286C18.7681 19.4356 19.3433 18.8641 19.3475 18.0794C19.3512 17.2952 18.776 16.7083 18.0053 16.7097C17.2435 16.7111 16.6645 17.2933 16.6589 18.0631C16.6533 18.8323 17.2276 19.4216 17.9894 19.4286Z" fill="white"/>
</g>
<defs>
<clipPath id="clip0_76_26906">
<rect width="19.2" height="19.2" fill="white" transform="translate(6.61719 6.68262)"/>
</clipPath>
</defs>
</svg>
