<svg width="25" height="25" viewBox="0 0 25 25" fill="none" xmlns="http://www.w3.org/2000/svg">
<mask id="mask0_76_25455" style="mask-type:alpha" maskUnits="userSpaceOnUse" x="0" y="0" width="25" height="25">
<rect x="0.515625" y="0.23999" width="24.2266" height="24.2266" fill="#D9D9D9"/>
</mask>
<g mask="url(#mask0_76_25455)">
<path d="M5.56381 19.4194H7.00226L16.8696 9.55209L15.4311 8.11364L5.56381 17.9809V19.4194ZM4.55436 21.4383C4.26836 21.4383 4.02861 21.3415 3.83514 21.1481C3.64166 20.9546 3.54492 20.7149 3.54492 20.4288V17.9809C3.54492 17.7118 3.59539 17.4552 3.69634 17.2112C3.79728 16.9673 3.94029 16.7528 4.12535 16.5677L16.8696 3.84874C17.0715 3.66368 17.2944 3.52067 17.5383 3.41973C17.7823 3.31878 18.0388 3.26831 18.308 3.26831C18.5772 3.26831 18.838 3.31878 19.0903 3.41973C19.3427 3.52067 19.5614 3.67209 19.7465 3.87398L21.1345 5.2872C21.3364 5.47226 21.4836 5.69097 21.5761 5.94333C21.6686 6.1957 21.7149 6.44806 21.7149 6.70042C21.7149 6.9696 21.6686 7.22617 21.5761 7.47012C21.4836 7.71407 21.3364 7.93698 21.1345 8.13887L8.41548 20.8579C8.23042 21.0429 8.01591 21.1859 7.77196 21.2869C7.52802 21.3878 7.27145 21.4383 7.00226 21.4383H4.55436ZM16.1377 8.84548L15.4311 8.11364L16.8696 9.55209L16.1377 8.84548Z" fill="#1D1D1E"/>
</g>
</svg>
