<svg width="73" height="73" viewBox="0 0 73 73" fill="none" xmlns="http://www.w3.org/2000/svg">
<g clip-path="url(#clip0_53_98489)">
<path d="M28.8861 8.9101C32.4713 2.76582 41.3494 2.76581 44.9345 8.91009L70.7693 53.1858C74.3832 59.3792 69.9158 67.1582 62.7451 67.1582H11.0756C3.90487 67.1582 -0.562534 59.3792 3.05134 53.1858L28.8861 8.9101Z" fill="#D24B3D"/>
<path d="M39.5495 23.9883L38.9095 43.3083H34.1895L33.5095 23.9883H39.5495ZM36.6695 52.6683C35.6561 52.6683 34.8161 52.3616 34.1495 51.7483C33.5095 51.1083 33.1895 50.3216 33.1895 49.3883C33.1895 48.4549 33.5095 47.6816 34.1495 47.0683C34.8161 46.4283 35.6561 46.1083 36.6695 46.1083C37.6561 46.1083 38.4695 46.4283 39.1095 47.0683C39.7495 47.6816 40.0695 48.4549 40.0695 49.3883C40.0695 50.3216 39.7495 51.1083 39.1095 51.7483C38.4695 52.3616 37.6561 52.6683 36.6695 52.6683Z" fill="white"/>
</g>
<defs>
<clipPath id="clip0_53_98489">
<rect width="72" height="72" fill="white" transform="translate(0.910156 0.158203)"/>
</clipPath>
</defs>
</svg>
