<svg width="157" height="157" viewBox="0 0 157 157" fill="none" xmlns="http://www.w3.org/2000/svg">
<circle cx="78.9062" cy="78.9443" r="78" fill="#F2F2F2"/>
<path d="M112.69 94.3809C111.396 98.5478 113.727 102.974 117.894 104.268L114.889 113.944L29.4323 87.4033L32.4375 77.7272C36.6044 79.0214 41.0326 76.6945 42.3267 72.5275C43.6209 68.3606 41.291 63.9315 37.1241 62.6374L42.9297 43.9443L128.386 70.4852L122.58 89.1782C118.413 87.8841 113.984 90.214 112.69 94.3809Z" fill="#D4D4D4"/>
<path opacity="0.39" d="M117.895 104.268L114.89 113.944L29.4333 87.4031L32.4384 77.727C36.6054 79.0212 41.0335 76.6943 42.3277 72.5273L112.691 94.3807C111.397 98.5476 113.728 102.974 117.895 104.268Z" fill="white"/>
<g opacity="0.2">
<path d="M42.8267 73.0112L42.2302 72.8259C42.0661 72.775 41.9736 72.599 42.0245 72.435C42.0755 72.2709 42.2514 72.1784 42.4155 72.2294L43.012 72.4146C43.1761 72.4656 43.2686 72.6415 43.2177 72.8055C43.1667 72.9696 42.9908 73.0621 42.8267 73.0112Z" fill="black"/>
<path d="M109.292 93.6537L108.09 93.2804C107.925 93.2294 107.833 93.0535 107.884 92.8895C107.935 92.7254 108.111 92.6329 108.275 92.6838L109.477 93.0571C109.641 93.1081 109.733 93.284 109.682 93.4481C109.632 93.6121 109.456 93.7047 109.292 93.6537ZM105.381 92.4392L104.179 92.0659C104.015 92.0149 103.923 91.839 103.973 91.675C104.024 91.5109 104.2 91.4184 104.364 91.4693L105.566 91.8427C105.73 91.8936 105.823 92.0695 105.772 92.2336C105.721 92.3976 105.545 92.4902 105.381 92.4392ZM101.471 91.2247L100.269 90.8514C100.105 90.8004 100.012 90.6245 100.063 90.4605C100.114 90.2964 100.29 90.2039 100.454 90.2548L101.656 90.6282C101.82 90.6791 101.913 90.855 101.862 91.0191C101.811 91.1831 101.635 91.2757 101.471 91.2247ZM97.5633 90.0112L96.3613 89.6378C96.1972 89.5869 96.1047 89.411 96.1556 89.2469C96.2066 89.0829 96.3825 88.9903 96.5465 89.0413L97.7486 89.4146C97.9126 89.4656 98.0052 89.6415 97.9542 89.8055C97.9033 89.9696 97.7274 90.0621 97.5633 90.0112ZM93.6529 88.7967L92.4508 88.4233C92.2868 88.3724 92.1943 88.1965 92.2452 88.0324C92.2962 87.8684 92.4721 87.7758 92.6361 87.8268L93.8382 88.2001C94.0022 88.2511 94.0948 88.427 94.0438 88.591C93.9929 88.7551 93.817 88.8476 93.6529 88.7967ZM89.7425 87.5822L88.5404 87.2089C88.3764 87.1579 88.2838 86.982 88.3348 86.8179C88.3857 86.6539 88.5617 86.5614 88.7257 86.6123L89.9278 86.9856C90.0918 87.0366 90.1844 87.2125 90.1334 87.3766C90.0825 87.5406 89.9065 87.6331 89.7425 87.5822ZM85.8321 86.3677L84.63 85.9944C84.466 85.9434 84.3734 85.7675 84.4244 85.6035C84.4753 85.4394 84.6513 85.3469 84.8153 85.3978L86.0174 85.7711C86.1814 85.8221 86.2739 85.998 86.223 86.1621C86.172 86.3261 85.9961 86.4187 85.8321 86.3677ZM81.9247 85.1541L80.7226 84.7808C80.5586 84.7299 80.466 84.5539 80.517 84.3899C80.5679 84.2258 80.7438 84.1333 80.9079 84.1843L82.1099 84.5576C82.274 84.6085 82.3665 84.7845 82.3156 84.9485C82.2646 85.1126 82.0887 85.2051 81.9247 85.1541ZM78.0142 83.9397L76.8122 83.5663C76.6481 83.5154 76.5556 83.3395 76.6066 83.1754C76.6575 83.0114 76.8334 82.9188 76.9975 82.9698L78.1995 83.3431C78.3636 83.3941 78.4561 83.57 78.4052 83.734C78.3542 83.8981 78.1783 83.9906 78.0142 83.9397ZM74.1038 82.7252L72.9018 82.3518C72.7377 82.3009 72.6452 82.125 72.6961 81.9609C72.7471 81.7969 72.923 81.7043 73.0871 81.7553L74.2891 82.1286C74.4532 82.1796 74.5457 82.3555 74.4948 82.5195C74.4438 82.6836 74.2679 82.7761 74.1038 82.7252ZM70.1934 81.5107L68.9914 81.1374C68.8273 81.0864 68.7348 80.9105 68.7857 80.7464C68.8367 80.5824 69.0126 80.4898 69.1766 80.5408L70.3787 80.9141C70.5428 80.9651 70.6353 81.141 70.5843 81.305C70.5334 81.4691 70.3575 81.5616 70.1934 81.5107ZM66.286 80.2971L65.0839 79.9238C64.9199 79.8728 64.8274 79.6969 64.8783 79.5329C64.9293 79.3688 65.1052 79.2763 65.2692 79.3272L66.4713 79.7006C66.6353 79.7515 66.7279 79.9274 66.6769 80.0915C66.626 80.2555 66.45 80.3481 66.286 80.2971ZM62.3756 79.0826L61.1735 78.7093C61.0095 78.6583 60.9169 78.4824 60.9679 78.3184C61.0188 78.1543 61.1948 78.0618 61.3588 78.1127L62.5609 78.4861C62.7249 78.537 62.8175 78.7129 62.7665 78.877C62.7156 79.041 62.5396 79.1336 62.3756 79.0826ZM58.4652 77.8681L57.2631 77.4948C57.0991 77.4439 57.0065 77.268 57.0575 77.1039C57.1084 76.9398 57.2843 76.8473 57.4484 76.8983L58.6505 77.2716C58.8145 77.3225 58.907 77.4985 58.8561 77.6625C58.8051 77.8266 58.6292 77.9191 58.4652 77.8681ZM54.5548 76.6537L53.3527 76.2803C53.1887 76.2294 53.0961 76.0535 53.1471 75.8894C53.198 75.7254 53.3739 75.6328 53.538 75.6838L54.74 76.0571C54.9041 76.1081 54.9966 76.284 54.9457 76.448C54.8947 76.6121 54.7188 76.7046 54.5548 76.6537ZM50.6473 75.4401L49.4453 75.0668C49.2812 75.0158 49.1887 74.8399 49.2396 74.6758C49.2906 74.5118 49.4665 74.4193 49.6306 74.4702L50.8326 74.8435C50.9967 74.8945 51.0892 75.0704 51.0383 75.2345C50.9873 75.3985 50.8114 75.491 50.6473 75.4401ZM46.7369 74.2256L45.5349 73.8523C45.3708 73.8013 45.2783 73.6254 45.3292 73.4614C45.3802 73.2973 45.5561 73.2048 45.7202 73.2557L46.9222 73.6291C47.0863 73.68 47.1788 73.8559 47.1278 74.02C47.0769 74.184 46.901 74.2766 46.7369 74.2256Z" fill="black"/>
<path d="M112.592 94.6792L111.996 94.4939C111.832 94.4429 111.739 94.267 111.79 94.103C111.841 93.9389 112.017 93.8464 112.181 93.8973L112.778 94.0826C112.942 94.1336 113.034 94.3095 112.983 94.4735C112.932 94.6376 112.756 94.7301 112.592 94.6792Z" fill="black"/>
</g>
<path d="M70.5748 71.5259L70.5914 71.4722C71.427 68.7817 73.9576 67.1311 76.6749 67.9751C79.3922 68.819 80.4857 71.5952 79.6668 74.2319L79.6501 74.2856C78.8229 76.9492 76.3138 78.6359 73.5667 77.7827C70.8196 76.9295 69.7568 74.1597 70.5748 71.5259ZM77.1905 73.5806L77.2072 73.5269C77.6843 71.9908 77.1972 70.4528 75.9623 70.0693C74.7274 69.6858 73.5123 70.6918 73.0519 72.1742L73.0353 72.2279C72.5489 73.7939 73.0453 75.302 74.2802 75.6855C75.515 76.0691 76.7301 75.063 77.1905 73.5806ZM69.7489 85.326L87.6973 72.0263C87.9901 71.7575 88.3999 71.7017 88.7847 71.8212C89.3872 72.0083 89.7378 72.6274 89.5498 73.2329C89.4645 73.5073 89.2773 73.7206 89.0808 73.8689L71.1324 87.1685C70.8098 87.428 70.403 87.4848 70.0182 87.3653C69.4157 87.1782 69.0928 86.5645 69.28 85.9619C69.3652 85.6875 69.5525 85.4742 69.7489 85.326ZM79.1343 84.9605L79.1509 84.9068C79.9865 82.2164 82.5171 80.5658 85.2344 81.4097C87.9517 82.2537 89.0452 85.0298 88.2263 87.6666L88.2096 87.7203C87.3823 90.3839 84.8435 92.0613 82.1262 91.2174C79.4089 90.3734 78.3153 87.5973 79.1343 84.9605ZM85.75 87.0152L85.7667 86.9616C86.2438 85.4254 85.7567 83.8874 84.5218 83.5039C83.2869 83.1204 82.0718 84.1264 81.6114 85.6089L81.5947 85.6626C81.1084 87.2285 81.6048 88.7367 82.8397 89.1202C84.0745 89.5037 85.2896 88.4977 85.75 87.0152Z" fill="#949494"/>
</svg>
