<svg width="20" height="14" viewBox="0 0 20 14" fill="none" xmlns="http://www.w3.org/2000/svg">
<g clip-path="url(#clip0_2328_122138)">
<path fill-rule="evenodd" clip-rule="evenodd" d="M3.03174 3.40858C3.03174 3.40858 3.5944 1.79493 3.9996 1.23853C3.9996 1.23853 7.48825 2.30361 8.12557 4.50112C8.12557 4.50112 6.88283 8.73072 5.02923 7.72644C3.17563 6.72217 3.03174 3.40792 3.03174 3.40792L3.03174 3.40858Z" fill="url(#paint0_linear_2328_122138)"/>
<path fill-rule="evenodd" clip-rule="evenodd" d="M16.8324 3.40858C16.8324 3.40858 16.2697 1.79493 15.8645 1.23853C15.8645 1.23853 12.3758 2.30361 11.7385 4.50112C11.7385 4.50112 12.9813 8.73072 14.8349 7.72644C16.6885 6.72217 16.8324 3.40792 16.8324 3.40792L16.8324 3.40858Z" fill="url(#paint1_linear_2328_122138)"/>
<path fill-rule="evenodd" clip-rule="evenodd" d="M20 1.11347C20 1.11347 17.353 1.10039 15.5292 3.83142C15.889 4.14722 16.1204 4.63955 16.1204 5.19269C16.1204 6.14531 15.4349 6.91814 14.5892 6.91814C13.7435 6.91814 13.058 6.14597 13.058 5.19269C13.058 4.55782 13.3627 4.00403 13.8155 3.70393C13.1327 2.58065 11.9551 1.14485 10.0024 0.00326913V0C10.0024 0 10.0003 0.00130765 9.99966 0.00130765C9.99898 0.00130765 9.9983 0 9.99695 0V0.00326913C8.03475 1.15073 6.85513 2.59504 6.17437 3.72093C6.6135 4.0243 6.90671 4.56959 6.90671 5.19269C6.90671 6.14531 6.2212 6.91814 5.3755 6.91814C4.52981 6.91814 3.8443 6.14597 3.8443 5.19269C3.8443 4.62778 4.08525 4.1263 4.45787 3.81181C2.63481 1.09974 0 1.11347 0 1.11347C2.98096 5.82298 2.19839 11.3537 2.19839 11.3537H17.8023C17.8023 11.3537 17.0197 5.82298 20.0007 1.11347H20Z" fill="url(#paint2_linear_2328_122138)"/>
<path fill-rule="evenodd" clip-rule="evenodd" d="M5.49727 6.91279C5.45723 6.91606 5.41651 6.91802 5.3751 6.91802C4.53009 6.91802 3.8439 6.14586 3.8439 5.19323C3.8439 4.62833 4.08417 4.12749 4.45679 3.81235C2.97513 1.60699 0.907734 1.15193 0.000278413 1.1127C-0.00311521 1.10747 0.246656 1.11924 0.243262 1.11401C0.243262 1.11401 2.87739 1.10028 4.70045 3.81235C4.32851 4.12749 4.08756 4.62833 4.08756 5.19323C4.08756 6.10009 4.7086 6.84283 5.49727 6.91279Z" fill="url(#paint3_linear_2328_122138)"/>
<path fill-rule="evenodd" clip-rule="evenodd" d="M14.5029 6.91369C14.543 6.91696 14.5837 6.91892 14.6251 6.91892C15.4701 6.91892 16.1563 6.14675 16.1563 5.19413C16.1563 4.62922 15.916 4.12839 15.5434 3.81325C17.0258 1.60789 19.0932 1.15283 20.0006 1.11295C20.004 1.10772 19.7542 1.11948 19.7576 1.11425C19.7576 1.11425 17.1235 1.10052 15.3004 3.81259C15.6724 4.12774 15.9133 4.62857 15.9133 5.19348C15.9133 6.10033 15.2923 6.84308 14.5036 6.91304L14.5029 6.91369Z" fill="url(#paint4_linear_2328_122138)"/>
<g filter="url(#filter0_d_2328_122138)">
<path fill-rule="evenodd" clip-rule="evenodd" d="M18.0832 11.1188C18.0832 10.5728 14.4635 10.1309 9.99752 10.1309C5.53151 10.1309 1.91187 10.5735 1.91187 11.1188L1.91187 11.566L2.78471 11.566C4.11976 11.887 6.84823 12.1074 9.99752 12.1074C13.1468 12.1074 15.8753 11.887 17.2103 11.566L18.0832 11.566L18.0832 11.1188Z" fill="url(#paint5_linear_2328_122138)"/>
</g>
<path fill-rule="evenodd" clip-rule="evenodd" d="M18.0854 11.5661C18.0854 12.112 14.4651 12.554 9.99972 12.554C5.53438 12.554 1.91406 12.1113 1.91406 11.5661C1.91406 11.0208 5.53438 10.5781 9.99972 10.5781C14.4651 10.5781 18.0854 11.0208 18.0854 11.5661Z" fill="url(#paint6_linear_2328_122138)"/>
<path style="mix-blend-mode:multiply" fill-rule="evenodd" clip-rule="evenodd" d="M17.782 11.6008C17.782 12.0081 14.2934 12.3383 9.99025 12.3383C5.68713 12.3383 2.19849 12.0081 2.19849 11.6008C2.19849 11.1935 5.68713 10.8633 9.99025 10.8633C14.2934 10.8633 17.782 11.1935 17.782 11.6008Z" fill="url(#paint7_linear_2328_122138)"/>
</g>
<defs>
<filter id="filter0_d_2328_122138" x="1.59595" y="9.92025" width="16.5926" height="2.39778" filterUnits="userSpaceOnUse" color-interpolation-filters="sRGB">
<feFlood flood-opacity="0" result="BackgroundImageFix"/>
<feColorMatrix in="SourceAlpha" type="matrix" values="0 0 0 0 0 0 0 0 0 0 0 0 0 0 0 0 0 0 127 0" result="hardAlpha"/>
<feOffset dx="-0.105305"/>
<feGaussianBlur stdDeviation="0.105305"/>
<feColorMatrix type="matrix" values="0 0 0 0 0.776471 0 0 0 0 0.54902 0 0 0 0 0.243137 0 0 0 0.5 0"/>
<feBlend mode="normal" in2="BackgroundImageFix" result="effect1_dropShadow_2328_122138"/>
<feBlend mode="normal" in="SourceGraphic" in2="effect1_dropShadow_2328_122138" result="shape"/>
</filter>
<linearGradient id="paint0_linear_2328_122138" x1="3.03174" y1="4.55996" x2="8.12557" y2="4.55996" gradientUnits="userSpaceOnUse">
<stop stop-color="#DBAD3A"/>
<stop offset="1" stop-color="#BC751C"/>
</linearGradient>
<linearGradient id="paint1_linear_2328_122138" x1="17.2898" y1="3.41904" x2="11.7253" y2="6.49394" gradientUnits="userSpaceOnUse">
<stop stop-color="#DBAD3A"/>
<stop offset="1" stop-color="#BC751C"/>
</linearGradient>
<linearGradient id="paint2_linear_2328_122138" x1="0.00136282" y1="5.67564" x2="20.0007" y2="5.67564" gradientUnits="userSpaceOnUse">
<stop stop-color="#BA973B"/>
<stop offset="0.193481" stop-color="#A57D24"/>
<stop offset="0.444427" stop-color="#F1DD80"/>
<stop offset="0.61" stop-color="#F1DD80"/>
<stop offset="0.67" stop-color="#D9BF63"/>
<stop offset="0.75" stop-color="#C2A247"/>
<stop offset="0.82" stop-color="#B28D33"/>
<stop offset="0.9" stop-color="#A88128"/>
<stop offset="0.97" stop-color="#A57D24"/>
</linearGradient>
<linearGradient id="paint3_linear_2328_122138" x1="1.50162" y1="0.596833" x2="4.45842" y2="7.59693" gradientUnits="userSpaceOnUse">
<stop stop-color="#F6E3A4"/>
<stop offset="0.06" stop-color="#F5DF93"/>
<stop offset="0.18" stop-color="#F4DA77"/>
<stop offset="0.25" stop-color="#F4D86D"/>
<stop offset="0.48" stop-color="#F6E19E"/>
<stop offset="0.83" stop-color="#B6781D"/>
<stop offset="1" stop-color="#ECCB46"/>
</linearGradient>
<linearGradient id="paint4_linear_2328_122138" x1="18.4986" y1="0.597731" x2="15.5411" y2="7.59785" gradientUnits="userSpaceOnUse">
<stop offset="0.24" stop-color="#F6E3A4"/>
<stop offset="0.27" stop-color="#F5DF93"/>
<stop offset="0.34" stop-color="#F4DA77"/>
<stop offset="0.38" stop-color="#F4D86D"/>
<stop offset="0.55" stop-color="#FFEBAB"/>
<stop offset="0.72" stop-color="#B6781D"/>
<stop offset="1" stop-color="#ECCB46"/>
</linearGradient>
<linearGradient id="paint5_linear_2328_122138" x1="1.91254" y1="11.1188" x2="18.0832" y2="11.1188" gradientUnits="userSpaceOnUse">
<stop stop-color="#F1D84F"/>
<stop offset="0.11" stop-color="#E2AB35"/>
<stop offset="0.2" stop-color="#D88F25"/>
<stop offset="0.25" stop-color="#D5851F"/>
<stop offset="0.48" stop-color="#ECCB46"/>
<stop offset="0.69" stop-color="#FAF3BF"/>
<stop offset="1" stop-color="#ECCB46"/>
</linearGradient>
<linearGradient id="paint6_linear_2328_122138" x1="1.91474" y1="11.5654" x2="18.0854" y2="11.5654" gradientUnits="userSpaceOnUse">
<stop stop-color="#F1D350"/>
<stop offset="0.01" stop-color="#EECD4D"/>
<stop offset="0.12" stop-color="#D5A033"/>
<stop offset="0.2" stop-color="#C58423"/>
<stop offset="0.25" stop-color="#C07A1D"/>
<stop offset="0.48" stop-color="#E5BE44"/>
<stop offset="0.69" stop-color="#F3D753"/>
<stop offset="1" stop-color="#BE781C"/>
</linearGradient>
<linearGradient id="paint7_linear_2328_122138" x1="2.19849" y1="11.6008" x2="17.782" y2="11.6008" gradientUnits="userSpaceOnUse">
<stop stop-color="#F1D350"/>
<stop offset="0.01" stop-color="#EECD4D"/>
<stop offset="0.12" stop-color="#D5A033"/>
<stop offset="0.2" stop-color="#C58423"/>
<stop offset="0.25" stop-color="#C07A1D"/>
<stop offset="0.48" stop-color="#E5BE44"/>
<stop offset="0.69" stop-color="#F3D753"/>
<stop offset="1" stop-color="#BE781C"/>
</linearGradient>
<clipPath id="clip0_2328_122138">
<rect width="20" height="13.0909" fill="white"/>
</clipPath>
</defs>
</svg>
